REM DIRINDEX 1\2,1\3,1\4,1\5
REM DIRNAME cjc005,folder01,folder02,folder03,folder04
TITLE ""
FILE "P1Q_t_0132-0141.mp3" MP3
  TRACK 01 AUDIO
    TITLE "3:cjc005_1297"
    INDEX 01 00:00:00
  TRACK 02 AUDIO
    TITLE "0:"
    INDEX 01 00:00:72
  TRACK 03 AUDIO
    TITLE "4:cjc005_1298"
    INDEX 01 00:01:26
  TRACK 04 AUDIO
    TITLE "0:"
    INDEX 01 00:02:40
  TRACK 05 AUDIO
    TITLE "5:cjc005_1299"
    INDEX 01 00:02:71
  TRACK 06 AUDIO
    TITLE "0:"
    INDEX 01 00:06:18
  TRACK 07 AUDIO
    TITLE "3:cjc005_1300"
    INDEX 01 00:07:07
  TRACK 08 AUDIO
    TITLE "0:"
    INDEX 01 00:08:15
  TRACK 09 AUDIO
    TITLE "4:cjc005_1301"
    INDEX 01 00:08:40
  TRACK 10 AUDIO
    TITLE "0:"
    INDEX 01 00:09:42
  TRACK 11 AUDIO
    TITLE "5:cjc005_1302"
    INDEX 01 00:09:71
  TRACK 12 AUDIO
    TITLE "0:"
    INDEX 01 00:13:30
  TRACK 13 AUDIO
    TITLE "3:cjc005_1303"
    INDEX 01 00:14:13
  TRACK 14 AUDIO
    TITLE "0:"
    INDEX 01 00:15:28
  TRACK 15 AUDIO
    TITLE "4:cjc005_1304"
    INDEX 01 00:15:54
  TRACK 16 AUDIO
    TITLE "0:"
    INDEX 01 00:17:00
  TRACK 17 AUDIO
    TITLE "5:cjc005_1305"
    INDEX 01 00:17:23
  TRACK 18 AUDIO
    TITLE "0:"
    INDEX 01 00:21:27
  TRACK 19 AUDIO
    TITLE "3:cjc005_1306"
    INDEX 01 00:22:09
  TRACK 20 AUDIO
    TITLE "0:"
    INDEX 01 00:23:30
  TRACK 21 AUDIO
    TITLE "4:cjc005_1307"
    INDEX 01 00:23:61
  TRACK 22 AUDIO
    TITLE "0:"
    INDEX 01 00:24:57
  TRACK 23 AUDIO
    TITLE "5:cjc005_1308"
    INDEX 01 00:25:01
  TRACK 24 AUDIO
    TITLE "0:"
    INDEX 01 00:29:36
  TRACK 25 AUDIO
    TITLE "3:cjc005_1309"
    INDEX 01 00:30:08
  TRACK 26 AUDIO
    TITLE "0:"
    INDEX 01 00:31:24
  TRACK 27 AUDIO
    TITLE "4:cjc005_1310"
    INDEX 01 00:31:49
  TRACK 28 AUDIO
    TITLE "0:"
    INDEX 01 00:32:64
  TRACK 29 AUDIO
    TITLE "5:cjc005_1311"
    INDEX 01 00:33:11
  TRACK 30 AUDIO
    TITLE "0:"
    INDEX 01 00:37:34
  TRACK 31 AUDIO
    TITLE "3:cjc005_1312"
    INDEX 01 00:38:12
  TRACK 32 AUDIO
    TITLE "0:"
    INDEX 01 00:39:19
  TRACK 33 AUDIO
    TITLE "4:cjc005_1313"
    INDEX 01 00:39:43
  TRACK 34 AUDIO
    TITLE "0:"
    INDEX 01 00:40:60
  TRACK 35 AUDIO
    TITLE "5:cjc005_1314"
    INDEX 01 00:41:10
  TRACK 36 AUDIO
    TITLE "0:"
    INDEX 01 00:47:15
  TRACK 37 AUDIO
    TITLE "3:cjc005_1315"
    INDEX 01 00:47:62
  TRACK 38 AUDIO
    TITLE "0:"
    INDEX 01 00:49:06
  TRACK 39 AUDIO
    TITLE "4:cjc005_1316"
    INDEX 01 00:49:31
  TRACK 40 AUDIO
    TITLE "0:"
    INDEX 01 00:51:20
  TRACK 41 AUDIO
    TITLE "5:cjc005_1317"
    INDEX 01 00:51:48
  TRACK 42 AUDIO
    TITLE "0:"
    INDEX 01 00:56:12
  TRACK 43 AUDIO
    TITLE "3:cjc005_1318"
    INDEX 01 00:56:65
  TRACK 44 AUDIO
    TITLE "0:"
    INDEX 01 00:58:03
  TRACK 45 AUDIO
    TITLE "4:cjc005_1319"
    INDEX 01 00:58:22
  TRACK 46 AUDIO
    TITLE "0:"
    INDEX 01 00:59:39
  TRACK 47 AUDIO
    TITLE "5:cjc005_1320"
    INDEX 01 00:59:61
  TRACK 48 AUDIO
    TITLE "0:"
    INDEX 01 01:03:69
  TRACK 49 AUDIO
    TITLE "3:cjc005_1321"
    INDEX 01 01:04:43
  TRACK 50 AUDIO
    TITLE "0:"
    INDEX 01 01:05:54
  TRACK 51 AUDIO
    TITLE "4:cjc005_1322"
    INDEX 01 01:06:02
  TRACK 52 AUDIO
    TITLE "0:"
    INDEX 01 01:07:12
  TRACK 53 AUDIO
    TITLE "5:cjc005_1323"
    INDEX 01 01:07:37
  TRACK 54 AUDIO
    TITLE "0:"
    INDEX 01 01:11:39
  TRACK 55 AUDIO
    TITLE "3:cjc005_1324"
    INDEX 01 01:12:15
  TRACK 56 AUDIO
    TITLE "0:"
    INDEX 01 01:13:30
  TRACK 57 AUDIO
    TITLE "4:cjc005_1325"
    INDEX 01 01:13:59
  TRACK 58 AUDIO
    TITLE "0:"
    INDEX 01 01:14:72
  TRACK 59 AUDIO
    TITLE "5:cjc005_1326"
    INDEX 01 01:15:23
  TRACK 60 AUDIO
    TITLE "0:"
    INDEX 01 01:19:09
